<?xml version="1.0" encoding="iso-8859-1"?>
<!-- Generator: Adobe Illustrator 19.0.0, SVG Export Plug-In . SVG Version: 6.00 Build 0)  -->
<svg version="1.1" id="Capa_1" xmlns="http://www.w3.org/2000/svg" xmlns:xlink="http://www.w3.org/1999/xlink" x="0px" y="0px"
	 viewBox="0 0 512 512" style="enable-background:new 0 0 512 512;" xml:space="preserve">
<g>
	<g>
		<circle cx="179.2" cy="102.4" r="102.4"/>
	</g>
</g>
<g>
	<g>
		<path d="M263.68,250.88c-25.6-12.8-53.76-20.48-84.48-20.48C79.36,230.4,0,309.76,0,409.6h207.36
			C194.56,348.16,227.84,284.16,263.68,250.88z"/>
	</g>
</g>
<g>
	<g>
		<path d="M384,256c-71.68,0-128,56.32-128,128s56.32,128,128,128s128-56.32,128-128S455.68,256,384,256z M440.32,376.32l-51.2,51.2
			c-10.24,10.24-25.6,10.24-35.84,0l-25.6-25.6c-10.24-10.24-10.24-25.6,0-35.84s25.6-10.24,35.84,0l7.68,7.68l33.28-33.28
			c10.24-10.24,25.6-10.24,35.84,0S450.56,366.08,440.32,376.32z"/>
	</g>
</g>
<g>
</g>
<g>
</g>
<g>
</g>
<g>
</g>
<g>
</g>
<g>
</g>
<g>
</g>
<g>
</g>
<g>
</g>
<g>
</g>
<g>
</g>
<g>
</g>
<g>
</g>
<g>
</g>
<g>
</g>
</svg>
